<mxfile host="app.diagrams.net" modified="2023-09-19T02:57:04.796Z" agent="Mozilla/5.0 (Windows NT 10.0; Win64; x64) AppleWebKit/537.36 (KHTML, like Gecko) Chrome/117.0.0.0 Safari/537.36 Edg/117.0.2045.31" etag="Dt1eLGP90N3Q61oOPhcA" version="21.7.5" type="github">
  <diagram id="C5RBs43oDa-KdzZeNtuy" name="Page-1">
    <mxGraphModel dx="2123" dy="683" grid="1" gridSize="10" guides="1" tooltips="1" connect="1" arrows="1" fold="1" page="1" pageScale="1" pageWidth="827" pageHeight="1169" math="0" shadow="0">
      <root>
        <mxCell id="WIyWlLk6GJQsqaUBKTNV-0" />
        <mxCell id="WIyWlLk6GJQsqaUBKTNV-1" parent="WIyWlLk6GJQsqaUBKTNV-0" />
        <mxCell id="-kDrHoA_pXDnuAOebw4G-1" value="&amp;lt;&amp;lt;interface&amp;gt;&amp;gt;&lt;br&gt;车" style="swimlane;fontStyle=0;childLayout=stackLayout;horizontal=1;startSize=30;horizontalStack=0;resizeParent=1;resizeParentMax=0;resizeLast=0;collapsible=1;marginBottom=0;whiteSpace=wrap;html=1;" vertex="1" parent="WIyWlLk6GJQsqaUBKTNV-1">
          <mxGeometry x="300" y="140" width="140" height="60" as="geometry" />
        </mxCell>
        <mxCell id="-kDrHoA_pXDnuAOebw4G-34" style="edgeStyle=orthogonalEdgeStyle;rounded=0;orthogonalLoop=1;jettySize=auto;html=1;exitX=1;exitY=0.5;exitDx=0;exitDy=0;entryX=0;entryY=0.5;entryDx=0;entryDy=0;endArrow=diamondThin;endFill=1;" edge="1" parent="WIyWlLk6GJQsqaUBKTNV-1" source="-kDrHoA_pXDnuAOebw4G-9" target="-kDrHoA_pXDnuAOebw4G-14">
          <mxGeometry relative="1" as="geometry" />
        </mxCell>
        <mxCell id="-kDrHoA_pXDnuAOebw4G-9" value="发动机" style="swimlane;fontStyle=0;childLayout=stackLayout;horizontal=1;startSize=30;horizontalStack=0;resizeParent=1;resizeParentMax=0;resizeLast=0;collapsible=1;marginBottom=0;whiteSpace=wrap;html=1;" vertex="1" parent="WIyWlLk6GJQsqaUBKTNV-1">
          <mxGeometry x="-10" y="440" width="140" height="60" as="geometry" />
        </mxCell>
        <mxCell id="-kDrHoA_pXDnuAOebw4G-30" style="edgeStyle=orthogonalEdgeStyle;rounded=0;orthogonalLoop=1;jettySize=auto;html=1;exitX=1;exitY=0.5;exitDx=0;exitDy=0;entryX=0;entryY=0.5;entryDx=0;entryDy=0;endArrow=diamondThin;endFill=1;" edge="1" parent="WIyWlLk6GJQsqaUBKTNV-1" source="-kDrHoA_pXDnuAOebw4G-13" target="-kDrHoA_pXDnuAOebw4G-14">
          <mxGeometry relative="1" as="geometry" />
        </mxCell>
        <mxCell id="-kDrHoA_pXDnuAOebw4G-13" value="汽车轮胎" style="swimlane;fontStyle=0;childLayout=stackLayout;horizontal=1;startSize=30;horizontalStack=0;resizeParent=1;resizeParentMax=0;resizeLast=0;collapsible=1;marginBottom=0;whiteSpace=wrap;html=1;" vertex="1" parent="WIyWlLk6GJQsqaUBKTNV-1">
          <mxGeometry x="-10" y="300" width="140" height="60" as="geometry" />
        </mxCell>
        <mxCell id="-kDrHoA_pXDnuAOebw4G-42" style="edgeStyle=orthogonalEdgeStyle;rounded=0;orthogonalLoop=1;jettySize=auto;html=1;exitX=0.5;exitY=0;exitDx=0;exitDy=0;entryX=0.5;entryY=1;entryDx=0;entryDy=0;dashed=1;endArrow=block;endFill=0;" edge="1" parent="WIyWlLk6GJQsqaUBKTNV-1" source="-kDrHoA_pXDnuAOebw4G-14" target="-kDrHoA_pXDnuAOebw4G-1">
          <mxGeometry relative="1" as="geometry" />
        </mxCell>
        <mxCell id="-kDrHoA_pXDnuAOebw4G-14" value="小汽车" style="swimlane;fontStyle=0;childLayout=stackLayout;horizontal=1;startSize=30;horizontalStack=0;resizeParent=1;resizeParentMax=0;resizeLast=0;collapsible=1;marginBottom=0;whiteSpace=wrap;html=1;" vertex="1" parent="WIyWlLk6GJQsqaUBKTNV-1">
          <mxGeometry x="200" y="370" width="140" height="60" as="geometry" />
        </mxCell>
        <mxCell id="-kDrHoA_pXDnuAOebw4G-43" style="edgeStyle=orthogonalEdgeStyle;rounded=0;orthogonalLoop=1;jettySize=auto;html=1;exitX=0.5;exitY=0;exitDx=0;exitDy=0;dashed=1;endArrow=block;endFill=0;" edge="1" parent="WIyWlLk6GJQsqaUBKTNV-1" source="-kDrHoA_pXDnuAOebw4G-15">
          <mxGeometry relative="1" as="geometry">
            <mxPoint x="369.9999999999998" y="200" as="targetPoint" />
          </mxGeometry>
        </mxCell>
        <mxCell id="-kDrHoA_pXDnuAOebw4G-15" value="自行车" style="swimlane;fontStyle=0;childLayout=stackLayout;horizontal=1;startSize=30;horizontalStack=0;resizeParent=1;resizeParentMax=0;resizeLast=0;collapsible=1;marginBottom=0;whiteSpace=wrap;html=1;" vertex="1" parent="WIyWlLk6GJQsqaUBKTNV-1">
          <mxGeometry x="410" y="370" width="140" height="60" as="geometry" />
        </mxCell>
        <mxCell id="-kDrHoA_pXDnuAOebw4G-36" style="edgeStyle=orthogonalEdgeStyle;rounded=0;orthogonalLoop=1;jettySize=auto;html=1;exitX=0;exitY=0.5;exitDx=0;exitDy=0;entryX=1;entryY=0.5;entryDx=0;entryDy=0;dashed=1;endArrow=open;endFill=0;" edge="1" parent="WIyWlLk6GJQsqaUBKTNV-1" source="-kDrHoA_pXDnuAOebw4G-16" target="-kDrHoA_pXDnuAOebw4G-15">
          <mxGeometry relative="1" as="geometry" />
        </mxCell>
        <mxCell id="-kDrHoA_pXDnuAOebw4G-38" style="edgeStyle=orthogonalEdgeStyle;rounded=0;orthogonalLoop=1;jettySize=auto;html=1;exitX=0.5;exitY=0;exitDx=0;exitDy=0;entryX=0.5;entryY=1;entryDx=0;entryDy=0;endArrow=open;endFill=0;" edge="1" parent="WIyWlLk6GJQsqaUBKTNV-1" source="-kDrHoA_pXDnuAOebw4G-16" target="-kDrHoA_pXDnuAOebw4G-18">
          <mxGeometry relative="1" as="geometry" />
        </mxCell>
        <mxCell id="-kDrHoA_pXDnuAOebw4G-40" style="edgeStyle=orthogonalEdgeStyle;rounded=0;orthogonalLoop=1;jettySize=auto;html=1;exitX=1;exitY=0.5;exitDx=0;exitDy=0;entryX=0;entryY=0.5;entryDx=0;entryDy=0;endArrow=diamondThin;endFill=0;" edge="1" parent="WIyWlLk6GJQsqaUBKTNV-1" source="-kDrHoA_pXDnuAOebw4G-16" target="-kDrHoA_pXDnuAOebw4G-17">
          <mxGeometry relative="1" as="geometry" />
        </mxCell>
        <mxCell id="-kDrHoA_pXDnuAOebw4G-16" value="学生" style="swimlane;fontStyle=0;childLayout=stackLayout;horizontal=1;startSize=30;horizontalStack=0;resizeParent=1;resizeParentMax=0;resizeLast=0;collapsible=1;marginBottom=0;whiteSpace=wrap;html=1;" vertex="1" parent="WIyWlLk6GJQsqaUBKTNV-1">
          <mxGeometry x="590" y="370" width="140" height="60" as="geometry" />
        </mxCell>
        <mxCell id="-kDrHoA_pXDnuAOebw4G-17" value="班级" style="swimlane;fontStyle=0;childLayout=stackLayout;horizontal=1;startSize=30;horizontalStack=0;resizeParent=1;resizeParentMax=0;resizeLast=0;collapsible=1;marginBottom=0;whiteSpace=wrap;html=1;" vertex="1" parent="WIyWlLk6GJQsqaUBKTNV-1">
          <mxGeometry x="800" y="370" width="140" height="60" as="geometry" />
        </mxCell>
        <mxCell id="-kDrHoA_pXDnuAOebw4G-18" value="身份证" style="swimlane;fontStyle=0;childLayout=stackLayout;horizontal=1;startSize=30;horizontalStack=0;resizeParent=1;resizeParentMax=0;resizeLast=0;collapsible=1;marginBottom=0;whiteSpace=wrap;html=1;" vertex="1" parent="WIyWlLk6GJQsqaUBKTNV-1">
          <mxGeometry x="590" y="250" width="140" height="60" as="geometry" />
        </mxCell>
        <mxCell id="-kDrHoA_pXDnuAOebw4G-35" style="edgeStyle=orthogonalEdgeStyle;rounded=0;orthogonalLoop=1;jettySize=auto;html=1;exitX=0.5;exitY=0;exitDx=0;exitDy=0;entryX=0.5;entryY=1;entryDx=0;entryDy=0;endArrow=block;endFill=0;" edge="1" parent="WIyWlLk6GJQsqaUBKTNV-1" source="-kDrHoA_pXDnuAOebw4G-19" target="-kDrHoA_pXDnuAOebw4G-14">
          <mxGeometry relative="1" as="geometry" />
        </mxCell>
        <mxCell id="-kDrHoA_pXDnuAOebw4G-19" value="SUV" style="swimlane;fontStyle=0;childLayout=stackLayout;horizontal=1;startSize=30;horizontalStack=0;resizeParent=1;resizeParentMax=0;resizeLast=0;collapsible=1;marginBottom=0;whiteSpace=wrap;html=1;" vertex="1" parent="WIyWlLk6GJQsqaUBKTNV-1">
          <mxGeometry x="200" y="525" width="140" height="60" as="geometry" />
        </mxCell>
        <mxCell id="-kDrHoA_pXDnuAOebw4G-41" style="edgeStyle=orthogonalEdgeStyle;rounded=0;orthogonalLoop=1;jettySize=auto;html=1;exitX=0.5;exitY=0;exitDx=0;exitDy=0;entryX=0.5;entryY=1;entryDx=0;entryDy=0;endArrow=diamondThin;endFill=1;" edge="1" parent="WIyWlLk6GJQsqaUBKTNV-1" source="-kDrHoA_pXDnuAOebw4G-20" target="-kDrHoA_pXDnuAOebw4G-16">
          <mxGeometry relative="1" as="geometry" />
        </mxCell>
        <mxCell id="-kDrHoA_pXDnuAOebw4G-20" value="嘴" style="swimlane;fontStyle=0;childLayout=stackLayout;horizontal=1;startSize=30;horizontalStack=0;resizeParent=1;resizeParentMax=0;resizeLast=0;collapsible=1;marginBottom=0;whiteSpace=wrap;html=1;" vertex="1" parent="WIyWlLk6GJQsqaUBKTNV-1">
          <mxGeometry x="590" y="500" width="140" height="60" as="geometry" />
        </mxCell>
      </root>
    </mxGraphModel>
  </diagram>
</mxfile>
